<?xml version="1.0" encoding="UTF-8" standalone="no"?>
<svg width="26px" height="28px" viewBox="0 0 26 28" version="1.1" xmlns="http://www.w3.org/2000/svg" xmlns:xlink="http://www.w3.org/1999/xlink">
    <!-- Generator: Sketch 49.3 (51167) - http://www.bohemiancoding.com/sketch -->
    <title>Jolocom_icon</title>
    <desc>Created with Sketch.</desc>
    <defs/>
    <g id="Demo-web-page" stroke="none" stroke-width="1" fill="none" fill-rule="evenodd">
        <g id="SSO-final" transform="translate(-595.000000, -480.000000)">
            <g id="Jolocom" transform="translate(573.000000, 469.000000)">
                <g id="Jolocom_icon" transform="translate(21.000000, 11.000000)">
                    <rect id="Rectangle-2" x="0" y="0" width="28" height="28"/>
                    <path d="M20.2625358,16.1438752 C19.8965316,15.4148625 19.6047151,14.6444386 19.3973068,13.8422955 C20.1680831,13.685638 20.9228237,13.4782297 21.658004,13.2239475 C21.9355469,14.3127968 22.4065769,15.3304542 23.0347931,16.2348036 C22.7836828,16.2004411 22.5311628,16.1706603 22.2759996,16.1507477 C21.5968565,16.0973538 20.9249383,16.0980586 20.2625358,16.1438752 M14.5999554,12.0105123 C14.3870844,11.9937716 14.1759756,11.9699822 13.965043,11.9449593 C14.0623152,11.6866241 14.156063,11.4261743 14.2420572,11.161319 C14.4101689,10.6437676 14.5539626,10.117229 14.6743193,9.5843466 C14.7329998,9.58980935 14.7911517,9.59632941 14.8500084,9.60091107 C15.687395,9.66646406 16.5140324,9.6498996 17.3237528,9.56531509 C17.3126511,9.67263169 17.3017256,9.77994828 17.2930909,9.88761731 C17.2374061,10.5988321 17.2402256,11.3010597 17.2941482,11.9907759 C16.4112974,12.0728933 15.5106486,12.0818804 14.5999554,12.0105123 M15.0602361,7.03271393 C15.1035857,6.47921406 15.1196215,5.92976719 15.1122204,5.3850782 C15.1360098,5.38719281 15.1590943,5.39089338 15.1828837,5.39283178 C16.3767588,5.48657961 17.5406768,5.34701517 18.6288213,5.01290636 C18.3526881,5.57574578 18.110565,6.16219837 17.91232,6.77367388 C17.8206868,7.05615089 17.7394504,7.34197604 17.6666725,7.63044446 C16.7991527,7.7620791 15.905905,7.80049457 14.9987361,7.72947882 C14.9960929,7.7293026 14.9934496,7.72895017 14.9908063,7.72877395 C15.0177677,7.49722386 15.0420857,7.26532133 15.0602361,7.03271393 M21.3993164,10.210272 C21.3774654,10.4908106 21.369888,10.7692346 21.3730599,11.045544 C20.6237822,11.3299594 19.8491291,11.5574565 19.0552682,11.7241585 C19.0180863,11.1666056 19.0191436,10.5998894 19.0640791,10.0266531 C19.0845203,9.76549843 19.1144774,9.50557728 19.1520117,9.24688966 C20.0540703,9.02397424 20.9240572,8.70907316 21.7512232,8.31117353 C21.5707762,8.92811179 21.450772,9.56408157 21.3993164,10.210272 M26.7247923,17.7849909 C26.7644413,17.6387302 26.8028567,17.4915884 26.8388052,17.3435655 C26.8381003,17.3432131 26.8377478,17.3430369 26.8372192,17.3428606 C26.8405673,17.3284108 26.8447966,17.3143134 26.8481447,17.2998635 C25.1145147,16.2492534 23.8556153,14.5186191 23.4180667,12.5076225 C24.6112369,11.9454879 25.7372681,11.2533047 26.7746619,10.4435842 C26.5794127,9.69800704 26.3378182,8.9728711 26.0262652,8.27892569 C25.1841207,9.00318054 24.2670837,9.63509731 23.2915423,10.1653364 C23.346346,9.64355576 23.4524291,9.12917622 23.6129635,8.6348855 C23.9001984,7.74851034 24.3446195,6.95271109 24.9004102,6.26158516 C24.8933615,6.25083588 24.8857841,6.24061526 24.8787354,6.22986597 C24.8794403,6.22933732 24.8801451,6.22863245 24.8810262,6.2281038 C24.7444575,6.02527719 24.6017211,5.82703225 24.4559891,5.63143058 C24.3032083,5.42543206 24.1449648,5.22331032 23.9805536,5.02647512 C23.8993173,4.9288505 23.8177285,4.83157832 23.7336726,4.73642075 C23.7334964,4.73677318 23.7331439,4.7369494 23.7329677,4.73712562 C23.7319104,4.73606831 23.7310293,4.73483479 23.7301482,4.73377748 C23.7236282,4.74100241 23.7174606,4.74875599 23.7109405,4.75615713 C22.5427932,5.81786893 21.165123,6.63252348 19.6618096,7.14514084 C20.1846476,5.61856668 20.9956016,4.25763719 22.0233034,3.11697985 C22.027885,3.11292684 22.0326429,3.10940248 22.0370483,3.10534948 C22.0363435,3.10464461 22.0356386,3.10411595 22.0349337,3.1035873 C22.0351099,3.10341108 22.0351099,3.10323486 22.0352862,3.10305865 C21.920216,3.01036812 21.8035598,2.91996843 21.685494,2.83133091 C21.6232891,2.78463321 21.5593221,2.73987391 21.4962361,2.69423352 C21.4356172,2.65035531 21.3757032,2.60577222 21.3145557,2.56295132 C21.2805456,2.53916192 21.2458307,2.51642984 21.2116445,2.4931691 C21.0045887,2.35113761 20.7947134,2.21298291 20.5804326,2.08081962 C20.5800802,2.08134827 20.5797277,2.08170071 20.5793753,2.08205314 C20.5640444,2.0727136 20.5492421,2.06284541 20.5339111,2.05350587 C19.0966794,3.18253284 17.255909,3.77656279 15.3203335,3.62413446 C15.2116072,3.61549979 15.1044668,3.60245968 14.9971502,3.58924335 C14.8558236,2.36488259 14.5900872,1.17382698 14.2092807,0.0319361184 C13.4184156,-0.0233962476 12.6391808,-0.00436473318 11.8770391,0.0699991472 C12.2250691,0.979811266 12.4906293,1.9285675 12.6650848,2.90551857 C11.4955278,2.34144563 10.499369,1.48678966 9.76647943,0.439527718 C9.1717446,0.591074963 8.59445533,0.783504719 8.03091105,1.0099445 C9.1398492,2.80348851 10.8428173,4.20389078 12.8885289,4.91228604 C12.9183097,5.55371856 12.9100274,6.20378575 12.8587481,6.86019678 C12.8460604,7.02214087 12.8305532,7.18373252 12.8129315,7.34497174 C9.87432468,6.53172694 7.43459026,4.59738496 5.93092441,2.06636976 C5.39627983,2.39466339 4.8840149,2.75520485 4.39800641,3.14958013 C6.18273954,6.07937604 9.05226899,8.30271508 12.4955633,9.20371632 C12.3952955,9.63439244 12.2777582,10.0603107 12.1418944,10.4788278 C12.026648,10.8333778 11.8988901,11.1808792 11.7607354,11.5218605 C8.72855702,10.7130211 6.01216078,9.01357739 3.92838617,6.57666246 C3.45894215,6.02439611 3.04712132,5.44023434 2.65944232,4.84056542 C2.16021751,5.41503521 1.70557577,6.02968264 1.30485667,6.68397905 C1.61729069,7.12417093 1.94717028,7.55238001 2.30242521,7.96737275 C4.57757227,10.6291415 7.51776503,12.5201339 10.8038732,13.4796394 C8.66547108,17.1789782 5.1116882,19.8083228 1,20.8044816 C1.37939676,21.4883826 1.82452274,22.1298152 2.31176475,22.7400571 C6.88866775,21.4069701 10.7855465,18.2791054 13.0501205,13.9813313 C13.5063482,14.0526995 13.9673338,14.1075032 14.4325486,14.1439803 C15.515759,14.2289172 16.5861054,14.2141149 17.6347771,14.1087367 C17.8284404,14.9001305 18.092767,15.6659728 18.4215893,16.3985098 C13.794288,17.3701744 9.92296077,20.7290605 8.39814879,25.4169806 C8.23268034,25.9311839 8.09699269,26.4554317 7.99284802,26.9886665 C8.57383786,27.2239172 9.18284632,27.4073598 9.80013701,27.563665 C9.89494215,27.0323685 10.0195281,26.5070635 10.1849965,25.9965607 C11.5552656,21.7791419 15.1351287,18.812164 19.3590676,18.135488 C19.8646362,18.9267056 20.4514412,19.662767 21.1083809,20.3320419 C17.1577557,20.3743342 13.6536662,22.9088737 12.4123886,26.7264545 C12.2823399,27.129112 12.1884159,27.5423426 12.114052,27.9601548 C12.1242726,27.9610359 12.1334359,27.961917 12.1427755,27.9638554 C12.7424444,28.0117866 13.3310116,28.0065001 13.9185215,27.9800674 C13.9705057,27.7419973 14.0253094,27.5051607 14.1007306,27.2750203 C15.1735441,23.9732288 18.3426437,21.8559728 21.809375,22.1284054 C22.6516958,22.1939584 23.4501383,22.4043624 24.1856711,22.7233165 C24.1937771,22.7130958 24.2015307,22.702699 24.2094605,22.6924784 L24.2115751,22.6935357 C24.3581882,22.5085071 24.4989862,22.3187206 24.636436,22.1262908 C24.6697412,22.0801218 24.703575,22.0343052 24.7361752,21.9876075 C24.7529159,21.9632894 24.7689517,21.9384427 24.7858686,21.9141247 C24.9354775,21.6964958 25.0801522,21.4749901 25.2174259,21.2480217 C25.2170734,21.2478454 25.2165448,21.247493 25.2160161,21.2473168 C25.2190118,21.2425589 25.2221837,21.237801 25.224827,21.2332194 C23.727505,20.4356579 22.4305425,19.3230192 21.4153522,17.9909894 C21.6527175,17.9953949 21.8906114,18.0042058 22.1300913,18.0230611 C23.5886454,18.1365453 24.9812941,18.5245767 26.2615159,19.1406339 C26.3194915,18.995078 26.3769385,18.8488173 26.4322709,18.7013231 C26.4773826,18.5816713 26.5212608,18.4614908 26.5607336,18.3391957 C26.5905144,18.2479149 26.6162422,18.1548719 26.6435559,18.0627101 C26.6669929,17.9842932 26.6918396,17.9067574 26.7136906,17.8276356 C26.7177436,17.8135382 26.7209155,17.7992646 26.7247923,17.7849909" id="Fill-1-Copy" fill="#FFFFFF"/>
                </g>
            </g>
        </g>
    </g>
</svg>