<?xml version="1.0" encoding="UTF-8" standalone="no"?>
<svg width="26px" height="24px" viewBox="0 0 26 24" version="1.1" xmlns="http://www.w3.org/2000/svg" xmlns:xlink="http://www.w3.org/1999/xlink">
    <!-- Generator: Sketch 49.3 (51167) - http://www.bohemiancoding.com/sketch -->
    <title>LI_icon</title>
    <desc>Created with Sketch.</desc>
    <defs/>
    <g id="Demo-web-page" stroke="none" stroke-width="1" fill="none" fill-rule="evenodd">
        <g id="SSO-final" transform="translate(-595.000000, -380.000000)">
            <g id="LI" transform="translate(572.000000, 369.000000)">
                <g id="LI_icon" transform="translate(21.000000, 11.000000)">
                    <rect id="Rectangle-2" x="0" y="0" width="28" height="28"/>
                    <path d="M7.70710624,7.80477211 L7.70710624,23.9948952 L2.31863376,23.9948952 L2.31863376,7.80477211 L7.70710624,7.80477211 Z M8.06200464,2.7965139 C8.06200464,4.35106401 6.89185147,5.59496199 5.01297761,5.59496199 L4.97854235,5.59496199 C3.16950751,5.59496199 2,4.35106401 2,2.7965139 C2,1.20908259 3.20512648,0 5.04848897,0 C6.89185147,0 8.02703133,1.20908259 8.06200464,2.7965139 Z M27.1399994,14.7119734 L27.1397842,23.9948952 L21.7515269,23.9948952 L21.7515269,15.3331702 C21.7515269,13.1575307 20.9717835,11.6729338 19.0211336,11.6729338 C17.5324543,11.6729338 16.6457464,12.6737688 16.2563051,13.6404331 C16.1138292,13.9868677 16.0788559,14.4695551 16.0788559,14.9534246 L16.0788559,23.995325 L10.6897378,23.995325 C10.6897378,23.995325 10.7607605,9.32439937 10.6897378,7.80520193 L16.0788559,7.80520193 L16.0788559,10.0983971 C16.7940332,8.99601718 18.0749173,7.42459665 20.9358417,7.42459665 C24.481705,7.42459665 27.1399994,9.73906785 27.1399994,14.7119734 Z" id="Shape" fill="#FFFFFF"/>
                </g>
            </g>
        </g>
    </g>
</svg>